<?xml version="1.0" encoding="UTF-8"?>
<svg version="1.1" xmlns="http://www.w3.org/2000/svg" width="180" height="180">
<path d="M0 0 C3.875 0.5625 3.875 0.5625 6.09375 2.01953125 C8.77861408 5.852528 8.38239881 9.24060372 8.25 13.8125 C8.23710938 14.74529785 8.22421875 15.6780957 8.2109375 16.63916016 C7.92338146 30.62831239 6.8647417 44.60872142 5.875 58.5625 C6.535 58.5625 7.195 58.5625 7.875 58.5625 C9.52087815 52.6146221 10.3696357 46.91189695 10.875 40.76953125 C11.04163186 38.90429377 11.20829959 37.03905948 11.375 35.17382812 C11.62717075 32.26426036 11.87675018 29.35448491 12.125 26.44458008 C12.36864724 23.61479821 12.62147741 20.78594281 12.875 17.95703125 C12.94589844 17.08923538 13.01679687 16.22143951 13.08984375 15.3273468 C13.81426178 7.29535198 13.81426178 7.29535198 15.875 3.5625 C18.875 1.5625 18.875 1.5625 21.75 1.8125 C24.875 2.5625 24.875 2.5625 27.19140625 3.546875 C31.05463079 5.0089396 34.96081053 5.42455647 39.03515625 6 C41.70723021 6.52926912 43.58790727 7.10519148 45.875 8.5625 C47.375 11.125 47.375 11.125 47.875 14.5625 C45.49073305 22.18115763 40.82523808 29.27204616 36.9375 36.1875 C36.27757876 37.36887237 35.61799711 38.55043449 34.95874023 39.73217773 C31.66582891 45.62708036 28.34379948 51.50488406 25 57.37109375 C24.39921631 58.4266748 23.79843262 59.48225586 23.17944336 60.56982422 C22.03606623 62.5751811 20.88857233 64.57819749 19.73657227 66.57861328 C18.97171509 67.91835205 18.97171509 67.91835205 18.19140625 69.28515625 C17.74224854 70.06640869 17.29309082 70.84766113 16.83032227 71.65258789 C15.72588307 73.50470112 15.72588307 73.50470112 15.875 75.5625 C21.32767133 69.76248614 25.86105006 63.89179951 29.9375 57.0625 C30.47624756 56.17900879 31.01499512 55.29551758 31.57006836 54.38525391 C34.37578625 49.76976993 37.1361491 45.12802461 39.8818512 40.47662354 C40.89961941 38.75341393 41.92038147 37.03197371 42.94116211 35.31054688 C44.25224478 33.09531902 45.55541151 30.87538323 46.84985352 28.65039062 C47.74595337 27.13348633 47.74595337 27.13348633 48.66015625 25.5859375 C49.18488525 24.68794434 49.70961426 23.78995117 50.25024414 22.86474609 C52.55028206 19.60563902 54.72807672 17.94480776 58.5 16.6875 C64.32686079 16.47169034 69.76551364 17.8316394 74.3125 21.5625 C75.84109354 24.49739959 76.38295034 26.78956344 77.0625 30 C78.17215745 34.63811879 79.38916197 36.46493849 83.4375 39 C84.22253906 39.41121094 85.00757813 39.82242188 85.81640625 40.24609375 C88.22183782 41.78429193 88.89589431 42.91225058 89.875 45.5625 C90.37381063 49.38671482 90.08824199 51.17281664 88.22265625 54.58203125 C85.57647543 57.94149209 83.89262702 58.86486059 79.9375 60.375 C78.69362102 60.87011659 77.45015888 61.36628121 76.20703125 61.86328125 C75.52334473 62.12963379 74.8396582 62.39598633 74.13525391 62.67041016 C56.60100007 68.98060207 56.60100007 68.98060207 40.875 78.5625 C40.38 80.0475 40.38 80.0475 39.875 81.5625 C40.53314697 81.28059814 41.19129395 80.99869629 41.86938477 80.70825195 C50.32062789 77.13390901 58.86378276 73.8405618 67.45922852 70.63110352 C69.83571067 69.74130955 72.20779087 68.8403618 74.58007812 67.93945312 C76.10390809 67.36910034 77.62798773 66.79941408 79.15234375 66.23046875 C79.85447495 65.96179489 80.55660614 65.69312103 81.28001404 65.41630554 C84.89945894 64.08075839 88.00701034 63.02749568 91.875 63.5625 C94.25 65.6875 94.25 65.6875 95.875 68.5625 C95.74730149 71.69111361 95.32322217 73.79056182 93.75 76.5 C92.11813905 80.34652937 93.58191177 84.39014706 94.5625 88.3125 C94.875 90.5625 94.875 90.5625 92.875 93.5625 C85.71771921 94.24414579 79.68112212 92.69974956 72.875 90.5625 C73.52726563 90.88863281 74.17953125 91.21476562 74.8515625 91.55078125 C79.52604167 93.88802083 84.20052083 96.22526042 88.875 98.5625 C89.3125 101.1875 89.3125 101.1875 88.875 104.5625 C86.84761205 106.97002319 84.41652455 108.72531268 81.875 110.5625 C80.90820312 111.29919922 80.90820312 111.29919922 79.921875 112.05078125 C75.21320423 115.5625 75.21320423 115.5625 72.875 115.5625 C72.5965625 116.13484375 72.318125 116.7071875 72.03125 117.296875 C70.89226208 119.52867566 69.67563617 121.67120874 68.375 123.8125 C67.9521875 124.51890625 67.529375 125.2253125 67.09375 125.953125 C66.6915625 126.48421875 66.289375 127.0153125 65.875 127.5625 C65.215 127.5625 64.555 127.5625 63.875 127.5625 C63.80023438 126.96824219 63.72546875 126.37398438 63.6484375 125.76171875 C61.78233038 113.9979258 56.04512566 104.79192714 46.46484375 97.8046875 C42.94123347 94.97727934 42.94123347 94.97727934 38.875 93.5625 C39.83599609 94.36300781 39.83599609 94.36300781 40.81640625 95.1796875 C54.07745144 106.60276369 59.69089953 118.27995449 62.625 135.3125 C62.84542969 136.51777344 63.06585938 137.72304687 63.29296875 138.96484375 C65.22268615 149.76406967 65.22268615 149.76406967 64.875 153.5625 C62.89359811 155.59604404 61.19843184 156.99336868 58.875 158.5625 C58.15957031 159.04847656 57.44414062 159.53445312 56.70703125 160.03515625 C39.13737268 171.24190421 17.57307721 174.84223556 -2.81518555 170.38208008 C-21.59622574 165.61393187 -39.3689368 154.97317928 -50.125 138.5625 C-50.63804688 137.79164063 -51.15109375 137.02078125 -51.6796875 136.2265625 C-60.73563017 121.94430466 -63.12620164 106.07909076 -60.6640625 89.44921875 C-58.16071554 80.21628615 -52.48705927 72.53046968 -46.125 65.5625 C-44.805 65.8925 -43.485 66.2225 -42.125 66.5625 C-42.84816406 67.78259766 -42.84816406 67.78259766 -43.5859375 69.02734375 C-50.65382301 81.85050747 -52.8618656 94.35678218 -49.359375 108.796875 C-44.28335591 124.28194591 -35.66668641 137.46776521 -21.125 145.5625 C-6.14980307 152.22006446 10.13265437 154.50886899 26.0625 149.5 C34.42552651 146.22509803 43.94393985 142.1393585 47.875 133.5625 C49.75442982 126.3132707 48.00565414 120.45014122 44.6875 114 C38.78306444 104.10837376 29.39106335 97.71302105 18.16796875 94.87890625 C13.31898168 94.2097956 9.06179312 93.80866284 4.875 96.5625 C3.43465072 98.40917349 2.06697793 100.31341069 0.75 102.25 C-3.23112618 107.8267629 -7.7119822 112.812547 -14.125 115.5625 C-16.921875 115.23046875 -16.921875 115.23046875 -19.125 114.5625 C-18.74949315 112.02102609 -18.43742047 110.84062133 -16.48828125 109.10546875 C-15.81152344 108.65816406 -15.13476562 108.21085937 -14.4375 107.75 C-9.96934495 104.57568121 -5.25370962 100.87253606 -3.4296875 95.5234375 C-2.7230246 90.97542756 -5.14872368 87.25172765 -7.625 83.625 C-16.14334565 72.87033449 -31.10463822 66.50877338 -42.89453125 59.875 C-43.66595459 59.43518799 -44.43737793 58.99537598 -45.23217773 58.54223633 C-46.70881837 57.70082618 -48.19119319 56.86937542 -49.67993164 56.04956055 C-53.68226294 53.75804667 -56.23635876 51.95533961 -58.125 47.5625 C-58.77161644 42.47039557 -58.82836835 40.63823983 -56 36.3125 C-53.125 33.5625 -53.125 33.5625 -50.0625 31.8125 C-46.85451179 29.35531754 -46.43493977 28.30478932 -45.125 24.625 C-43.29882003 19.55809901 -41.83305216 17.27868394 -37.125 14.5625 C-34.09450297 13.91310778 -32.30912136 14.10028884 -29.125 14.5625 C-25.8490849 17.22392104 -24.42094483 19.66821716 -23.08984375 23.6328125 C-22.75533203 24.6125 -22.42082031 25.5921875 -22.07617188 26.6015625 C-21.74166016 27.61992187 -21.40714844 28.63828125 -21.0625 29.6875 C-20.72412109 30.68265625 -20.38574219 31.6778125 -20.03710938 32.703125 C-14.125 50.22218025 -14.125 50.22218025 -14.125 54.5625 C-13.465 53.9025 -12.805 53.2425 -12.125 52.5625 C-12.38192627 51.85230713 -12.63885254 51.14211426 -12.90356445 50.41040039 C-14.08269485 47.14901541 -15.26010857 43.88701315 -16.4375 40.625 C-16.84162109 39.50802734 -17.24574219 38.39105469 -17.66210938 37.24023438 C-19.42893637 32.34195792 -21.19190907 27.44190643 -22.890625 22.51953125 C-23.12168945 21.85284424 -23.35275391 21.18615723 -23.59082031 20.49926758 C-24.55951258 16.98709402 -24.56312751 14.19269937 -24.125 10.5625 C-21.3386669 7.8583037 -19.03912061 7.17146868 -15.25 6.6875 C-11.66365475 6.0792894 -9.60851078 5.48868088 -7 2.9375 C-4.11040176 0.55044059 -3.51096146 0.16134933 0 0 Z M-47.125 40.5625 C-44.72757914 45.88330649 -40.80403459 50.08818537 -37.125 54.5625 C-36.60421875 55.22121094 -36.0834375 55.87992188 -35.546875 56.55859375 C-31.39381549 61.68146111 -26.57856156 66.55521121 -20.125 68.4375 C-19.465 68.47875 -18.805 68.52 -18.125 68.5625 C-22.92784555 62.75234624 -28.11039377 57.39088745 -33.43994141 52.06225586 C-34.89125302 50.6087221 -36.33433488 49.14731827 -37.77734375 47.68554688 C-38.69128906 46.76966797 -39.60523438 45.85378906 -40.546875 44.91015625 C-41.37799805 44.07492432 -42.20912109 43.23969238 -43.06542969 42.37915039 C-44.91726996 40.3420016 -44.91726996 40.3420016 -47.125 40.5625 Z " fill="#FDB604" transform="translate(76.125,1.4375)"/>
<path d="M0 0 C2.375 2.125 2.375 2.125 4 5 C3.87230149 8.12861361 3.44822217 10.22806182 1.875 12.9375 C0.24313905 16.78402937 1.70691177 20.82764706 2.6875 24.75 C3 27 3 27 1 30 C-6.15728079 30.68164579 -12.19387788 29.13724956 -19 27 C-18.34773437 27.32613281 -17.69546875 27.65226562 -17.0234375 27.98828125 C-12.34895833 30.32552083 -7.67447917 32.66276042 -3 35 C-2.5625 37.625 -2.5625 37.625 -3 41 C-5.02738795 43.40752319 -7.45847545 45.16281268 -10 47 C-10.96679688 47.73669922 -10.96679688 47.73669922 -11.953125 48.48828125 C-16.66179577 52 -16.66179577 52 -19 52 C-19.2784375 52.57234375 -19.556875 53.1446875 -19.84375 53.734375 C-20.98273792 55.96617566 -22.19936383 58.10870874 -23.5 60.25 C-23.9228125 60.95640625 -24.345625 61.6628125 -24.78125 62.390625 C-25.38453125 63.18726563 -25.38453125 63.18726563 -26 64 C-26.66 64 -27.32 64 -28 64 C-28.11214844 63.10861328 -28.11214844 63.10861328 -28.2265625 62.19921875 C-30.09266962 50.4354258 -35.82987434 41.22942714 -45.41015625 34.2421875 C-48.93376653 31.41477934 -48.93376653 31.41477934 -53 30 C-52.35933594 30.53367187 -51.71867187 31.06734375 -51.05859375 31.6171875 C-37.79754856 43.04026369 -32.18410047 54.71745449 -29.25 71.75 C-29.02957031 72.95527344 -28.80914062 74.16054687 -28.58203125 75.40234375 C-26.65231385 86.20156967 -26.65231385 86.20156967 -27 90 C-28.98140189 92.03354404 -30.67656816 93.43086868 -33 95 C-33.71542969 95.48597656 -34.43085938 95.97195312 -35.16796875 96.47265625 C-52.73762732 107.67940421 -74.30192279 111.27973556 -94.69018555 106.81958008 C-113.47122574 102.05143187 -131.2439368 91.41067928 -142 75 C-142.51304687 74.22914063 -143.02609375 73.45828125 -143.5546875 72.6640625 C-152.61063017 58.38180466 -155.00120164 42.51659076 -152.5390625 25.88671875 C-150.03571554 16.65378615 -144.36205927 8.96796968 -138 2 C-136.68 2.33 -135.36 2.66 -134 3 C-134.48210937 3.81339844 -134.96421875 4.62679687 -135.4609375 5.46484375 C-142.52882301 18.28800747 -144.7368656 30.79428218 -141.234375 45.234375 C-136.15835591 60.71944591 -127.54168641 73.90526521 -113 82 C-98.02480307 88.65756446 -81.74234563 90.94636899 -65.8125 85.9375 C-57.44947349 82.66259803 -47.93106015 78.5768585 -44 70 C-42.12057018 62.7507707 -43.86934586 56.88764122 -47.1875 50.4375 C-52.93326313 40.81169568 -60.81986305 36.25977362 -71 32 C-73.77253351 31.2972195 -73.77253351 31.2972195 -76 31 C-76 30.34 -76 29.68 -76 29 C-73.46195322 27.53504663 -70.91990283 26.07795678 -68.375 24.625 C-67.66214844 24.2125 -66.94929688 23.8 -66.21484375 23.375 C-62.21467336 21.09967372 -58.43984132 19.30154252 -54 18 C-49.20899152 16.4530395 -44.55167549 14.66840555 -39.875 12.8125 C-32.19224165 9.78936713 -24.44424733 6.99730719 -16.63818359 4.30981445 C-13.4259011 3.20333264 -10.23881557 2.09603843 -7.0859375 0.828125 C-4.44987111 -0.21840323 -2.80619841 -0.50367664 0 0 Z " fill="#101A23" transform="translate(168,65)"/>
<path d="M0 0 C3.80035043 3.22453976 4.94940023 6.98424469 5.6875 11.75 C6.30794587 14.60187401 6.83389127 15.56050684 9.1171875 17.453125 C10.70582477 18.45807765 12.32298328 19.41974727 13.96875 20.328125 C16.34776401 21.94372407 17.07557257 23.08010159 18.0625 25.75 C18.56131063 29.57421482 18.27574199 31.36031664 16.41015625 34.76953125 C13.76397543 38.12899209 12.08012702 39.05236059 8.125 40.5625 C6.88112102 41.05761659 5.63765888 41.55378121 4.39453125 42.05078125 C3.71084473 42.31713379 3.0271582 42.58348633 2.32275391 42.85791016 C-17.40749877 49.38407448 -17.40749877 49.38407448 -32.9375 61.75 C-35.48383856 63.15437925 -38.00181015 64.44568335 -40.625 65.6875 C-42.02571966 66.36124745 -43.42546816 67.03701783 -44.82421875 67.71484375 C-45.51257813 68.04718018 -46.2009375 68.3795166 -46.91015625 68.72192383 C-48.88296064 69.72234282 -50.76978543 70.81085138 -52.66796875 71.9453125 C-55.5386818 73.52986379 -57.38126168 74.26526291 -60.5625 74.6875 C-65.97491942 75.76632684 -68.2634559 78.44712715 -71.4765625 82.8671875 C-75.44322431 88.24663297 -79.59097996 93.17102543 -85.9375 95.75 C-88.7109375 95.3984375 -88.7109375 95.3984375 -90.9375 94.75 C-90.56199315 92.20852609 -90.24992047 91.02812133 -88.30078125 89.29296875 C-87.62402344 88.84566406 -86.94726562 88.39835937 -86.25 87.9375 C-81.77873693 84.76097318 -77.07224185 81.05913544 -75.23828125 75.7109375 C-74.33739424 69.83762216 -78.84731125 64.39707773 -81.9375 59.75 C-75.57781267 55.59221602 -69.16134522 51.68302113 -62.45703125 48.10546875 C-60.23142536 46.90812729 -58.05118513 45.65908439 -55.875 44.375 C-52.9375 42.75 -52.9375 42.75 -50.9375 42.75 C-52.42920266 47.7223422 -54.54207417 52.16845739 -56.9375 56.75 C-46.2445573 46.49914279 -39.39584261 33.30820875 -31.93518066 20.6686554 C-30.91668161 18.94463924 -29.89511771 17.22243492 -28.87353516 15.50024414 C-27.56144919 13.28431591 -26.25745608 11.06357175 -24.96240234 8.83764648 C-24.36508301 7.82645752 -23.76776367 6.81526855 -23.15234375 5.7734375 C-22.62761475 4.87544434 -22.10288574 3.97745117 -21.56225586 3.05224609 C-15.86503616 -5.02059865 -8.17146793 -3.4772204 0 0 Z " fill="#307B05" transform="translate(147.9375,21.25)"/>
<path d="M0 0 C2.375 2.125 2.375 2.125 4 5 C3.87230149 8.12861361 3.44822217 10.22806182 1.875 12.9375 C0.24313905 16.78402937 1.70691177 20.82764706 2.6875 24.75 C3 27 3 27 1 30 C-6.15728079 30.68164579 -12.19387788 29.13724956 -19 27 C-18.34773438 27.32613281 -17.69546875 27.65226562 -17.0234375 27.98828125 C-12.34895833 30.32552083 -7.67447917 32.66276042 -3 35 C-2.5625 37.625 -2.5625 37.625 -3 41 C-5.02738795 43.40752319 -7.45847545 45.16281268 -10 47 C-10.96679688 47.73669922 -10.96679688 47.73669922 -11.953125 48.48828125 C-16.66179577 52 -16.66179577 52 -19 52 C-19.2784375 52.57234375 -19.556875 53.1446875 -19.84375 53.734375 C-20.98273792 55.96617566 -22.19936383 58.10870874 -23.5 60.25 C-23.9228125 60.95640625 -24.345625 61.6628125 -24.78125 62.390625 C-25.1834375 62.92171875 -25.585625 63.4528125 -26 64 C-26.66 64 -27.32 64 -28 64 C-28.07476562 63.40574219 -28.14953125 62.81148437 -28.2265625 62.19921875 C-30.09266962 50.4354258 -35.82987434 41.22942714 -45.41015625 34.2421875 C-48.93376653 31.41477934 -48.93376653 31.41477934 -53 30 C-52.35933594 30.53367187 -51.71867187 31.06734375 -51.05859375 31.6171875 C-42.54786478 38.94833704 -32.82664877 48.90686351 -31.75 60.75 C-33.78509768 64.41317583 -37.28426071 66.21431752 -41 68 C-41.66 68 -42.32 68 -43 68 C-43.00386719 67.00033203 -43.00386719 67.00033203 -43.0078125 65.98046875 C-43.42614813 56.01013614 -47.37529813 47.47113581 -54.7421875 40.6328125 C-60.90921558 36.17292022 -68.42949527 32.11414975 -76 31 C-76 30.34 -76 29.68 -76 29 C-73.46195322 27.53504663 -70.91990283 26.07795678 -68.375 24.625 C-67.66214844 24.2125 -66.94929688 23.8 -66.21484375 23.375 C-62.21467336 21.09967372 -58.43984132 19.30154252 -54 18 C-49.20899152 16.4530395 -44.55167549 14.66840555 -39.875 12.8125 C-32.19224165 9.78936713 -24.44424733 6.99730719 -16.63818359 4.30981445 C-13.4259011 3.20333264 -10.23881557 2.09603843 -7.0859375 0.828125 C-4.44987111 -0.21840323 -2.80619841 -0.50367664 0 0 Z " fill="#063E7A" transform="translate(168,65)"/>
<path d="M0 0 C5.75084495 2.02970998 8.46499371 4.00940289 12 9 C13.24730869 12.74192608 13.44621667 15.04779522 13 19 C11.2677393 22.20139319 9.16176274 25.07720854 7 28 C4.79413129 31.34683528 3.19299207 33.94716651 3 38 C3.91666667 41.75 3.91666667 41.75 6 45 C9.05181069 46.51973152 9.05181069 46.51973152 12 47 C12.598125 46.360625 13.19625 45.72125 13.8125 45.0625 C17.5501561 41.53842425 21.06398756 41.86450864 26 41.6875 C34.08638187 41.27886921 41.21916258 39.52055828 48 35 C48.33 34.154375 48.66 33.30875 49 32.4375 C49.33 31.633125 49.66 30.82875 50 30 C53.38006894 28.87331035 53.9640731 29.10363088 57.125 30.375 C57.82882813 30.65085937 58.53265625 30.92671875 59.2578125 31.2109375 C61 32 61 32 62 33 C62.07205511 34.68608966 62.08386068 36.37500659 62.0625 38.0625 C62.05347656 38.98160156 62.04445313 39.90070313 62.03515625 40.84765625 C62.02355469 41.55792969 62.01195313 42.26820312 62 43 C60.35 43 58.7 43 57 43 C56.67 44.65 56.34 46.3 56 48 C53.36 48.66 50.72 49.32 48 50 C48 51.32 48 52.64 48 54 C47.071875 53.95875 46.14375 53.9175 45.1875 53.875 C41.84190281 53.72863661 41.84190281 53.72863661 39 56 C39.9075 55.79375 40.815 55.5875 41.75 55.375 C45.11027897 54.9872755 46.24075815 55.19588033 49 57 C49.33 56.01 49.66 55.02 50 54 C51.98 54.33 53.96 54.66 56 55 C56.495 54.01 56.495 54.01 57 53 C58.1446875 53.2784375 58.1446875 53.2784375 59.3125 53.5625 C62.08967375 54.22819173 62.08967375 54.22819173 65 53 C65.73323796 50.98491642 65.73323796 50.98491642 66 49 C67.98 49.495 67.98 49.495 70 50 C70.75 51.625 70.75 51.625 71 54 C67.7936245 61.59404725 59.83703664 64.66224064 52.77734375 68.07421875 C39.92257547 73.15172838 24.3283783 71.62412159 11.75 66.75 C1.67760037 62.23977406 -4.60610093 56.22214829 -9.875 46.5625 C-11.68084519 40.84399024 -12.00953542 35.66785341 -9.625 30.0625 C-7.61310904 26.38256854 -4.85779604 23.85360359 -1.8125 21 C2.4373793 17.01518994 2.4373793 17.01518994 4.3125 11.6875 C3.98453767 7.81754447 3.28423987 6.07493829 1 3 C0.67 2.01 0.34 1.02 0 0 Z M19 49 C18.34 50.32 17.68 51.64 17 53 C17.66 53.66 18.32 54.32 19 55 C20.32 55 21.64 55 23 55 C24.01111093 51.95086772 24.01111093 51.95086772 23 49 C21.68 49 20.36 49 19 49 Z " fill="#32469C" transform="translate(49,78)"/>
<path d="M0 0 C1.32 0.33 2.64 0.66 4 1 C3.51789062 1.81339844 3.03578125 2.62679687 2.5390625 3.46484375 C-4.52882301 16.28800747 -6.7368656 28.79428218 -3.234375 43.234375 C1.83731533 58.70624043 10.4549329 71.92851206 25 80 C29.27102615 81.86561453 33.58836739 83.49949173 38 85 C34.89656252 87.57063494 31.84351111 89.80764414 28.3125 91.75 C27.54550781 92.17796875 26.77851562 92.6059375 25.98828125 93.046875 C24 94 24 94 22 94 C21.67 94.66 21.34 95.32 21 96 C11.28991134 89.51309317 2.49609462 82.8255693 -4 73 C-4.51433594 72.22785156 -5.02867188 71.45570313 -5.55859375 70.66015625 C-14.60825656 56.3747783 -17.00128546 40.51715685 -14.5390625 23.88671875 C-12.03571554 14.65378615 -6.36205927 6.96796968 0 0 Z " fill="#083E7B" transform="translate(30,67)"/>
<path d="M0 0 C3.875 0.5625 3.875 0.5625 6.09765625 1.94921875 C8.89262784 6.05874841 8.34082722 10.08959414 8.1875 14.9375 C8.16550537 15.92105469 8.14351074 16.90460937 8.12084961 17.91796875 C8.07192308 19.88923942 8.01420389 21.86031342 7.94726562 23.83105469 C7.88459862 26.19969805 7.89671604 28.54601439 7.953125 30.9140625 C7.91680154 39.39559129 7.91680154 39.39559129 5.0859375 42.56640625 C2.75706368 44.16300531 0.42395432 45.35404756 -2.125 46.5625 C-3.592735 47.52751681 -5.05181563 48.50588457 -6.5 49.5 C-8.3984375 50.77734375 -8.3984375 50.77734375 -10.125 51.5625 C-11.115 51.2325 -12.105 50.9025 -13.125 50.5625 C-14.17853308 48.2811466 -15.02715265 46.11718222 -15.82421875 43.74609375 C-16.0641304 43.05620865 -16.30404205 42.36632355 -16.55122375 41.65553284 C-17.05702248 40.19057993 -17.55679489 38.72353472 -18.05102539 37.25463867 C-18.80334414 35.02710943 -19.58072866 32.8095494 -20.36132812 30.59179688 C-20.85050932 29.16459317 -21.33818652 27.7368729 -21.82421875 26.30859375 C-22.05541916 25.65306015 -22.28661957 24.99752655 -22.52482605 24.3221283 C-24.11537794 19.5112157 -24.46836434 15.5632677 -24.125 10.5625 C-21.56153087 7.62100777 -19.02005628 7.16903367 -15.25 6.6875 C-11.66365475 6.0792894 -9.60851078 5.48868088 -7 2.9375 C-4.11040176 0.55044059 -3.51096146 0.16134933 0 0 Z " fill="#FD6E04" transform="translate(76.125,1.4375)"/>
<path d="M0 0 C0.763125 0.32613281 1.52625 0.65226563 2.3125 0.98828125 C6.17826465 2.44356184 10.08560606 2.86202759 14.16015625 3.4375 C16.8346882 3.96725598 18.71972166 4.52483132 21 6 C22.69971999 9.39943998 23.08044621 11.41389187 22.5625 15.1875 C20.76665984 18.42001229 19.57413711 18.70261796 16.27124023 20.01586914 C11.25830901 22.18797768 6.53209326 24.99254962 1.75 27.625 C-0.39982878 28.80689639 -2.55081737 29.9866863 -4.703125 31.1640625 C-5.64833008 31.68436035 -6.59353516 32.2046582 -7.56738281 32.74072266 C-10 34 -10 34 -13 35 C-12.59369345 26.36063964 -12.09610726 17.72781334 -11.1875 9.125 C-11.05730469 7.82820312 -10.92710938 6.53140625 -10.79296875 5.1953125 C-10 2 -10 2 -8.109375 0.04296875 C-5.06801122 -1.46081667 -3.2307093 -0.85712696 0 0 Z " fill="#FC6E06" transform="translate(101,4)"/>
<path d="M0 0 C2.73167413 2.31778411 3.8522867 4.38829638 5.0625 7.75 C5.02734375 10.19921875 5.02734375 10.19921875 4.0625 12.75 C1.9396348 14.32170761 0.06878267 15.49017824 -2.25 16.6875 C-3.20169067 17.20497803 -3.20169067 17.20497803 -4.17260742 17.73291016 C-8.92979404 20.29680591 -13.78163758 22.66741828 -18.640625 25.03125 C-23.63491863 27.63491019 -28.44019215 30.55389805 -33.23950195 33.49951172 C-33.93519287 33.91990723 -34.63088379 34.34030273 -35.34765625 34.7734375 C-35.96777588 35.15419434 -36.58789551 35.53495117 -37.22680664 35.92724609 C-38.9375 36.75 -38.9375 36.75 -41.9375 36.75 C-41.35484375 35.82703125 -40.7721875 34.9040625 -40.171875 33.953125 C-39.34334874 32.63566892 -38.5152616 31.31793665 -37.6875 30 C-37.24583496 29.29786377 -36.80416992 28.59572754 -36.34912109 27.87231445 C-33.75548038 23.72745106 -31.21892938 19.55571859 -28.7421875 15.33984375 C-27.94796387 13.9926123 -27.94796387 13.9926123 -27.13769531 12.61816406 C-26.10143537 10.85465908 -25.07193302 9.08716278 -24.04980469 7.31542969 C-23.57188477 6.50364258 -23.09396484 5.69185547 -22.6015625 4.85546875 C-21.97435303 3.77495239 -21.97435303 3.77495239 -21.33447266 2.67260742 C-15.68341902 -5.10475143 -7.87619667 -3.35157305 0 0 Z " fill="#FCB505" transform="translate(147.9375,21.25)"/>
<path d="M0 0 C0.85851562 0.45246094 1.71703125 0.90492187 2.6015625 1.37109375 C3.91253906 2.05365234 3.91253906 2.05365234 5.25 2.75 C6.22839844 3.27400391 6.22839844 3.27400391 7.2265625 3.80859375 C7.6640625 6.43359375 7.6640625 6.43359375 7.2265625 9.80859375 C5.19917455 12.21611694 2.76808705 13.97140643 0.2265625 15.80859375 C-0.41796875 16.29972656 -1.0625 16.79085937 -1.7265625 17.296875 C-6.43523327 20.80859375 -6.43523327 20.80859375 -8.7734375 20.80859375 C-9.051875 21.3809375 -9.3303125 21.95328125 -9.6171875 22.54296875 C-10.75617542 24.77476941 -11.97280133 26.91730249 -13.2734375 29.05859375 C-13.69625 29.765 -14.1190625 30.47140625 -14.5546875 31.19921875 C-14.956875 31.7303125 -15.3590625 32.26140625 -15.7734375 32.80859375 C-16.4334375 32.80859375 -17.0934375 32.80859375 -17.7734375 32.80859375 C-17.88558594 31.91720703 -17.88558594 31.91720703 -18 31.0078125 C-19.34509377 22.52844689 -23.05220225 15.89044663 -27.7734375 8.80859375 C-25.12353458 7.10865603 -22.46184997 5.44611971 -19.7734375 3.80859375 C-18.85949219 3.2465625 -17.94554687 2.68453125 -17.00390625 2.10546875 C-16.06160156 1.55375 -15.11929688 1.00203125 -14.1484375 0.43359375 C-13.26929688 -0.08976562 -12.39015625 -0.613125 -11.484375 -1.15234375 C-7.17073024 -2.80570039 -4.13699021 -1.77715777 0 0 Z " fill="#491871" transform="translate(157.7734375,96.19140625)"/>
<path d="M0 0 C3.76517041 2.23874998 4.44520979 5.14053143 5.60546875 9.1640625 C5.8686792 10.06850098 6.13188965 10.97293945 6.40307617 11.90478516 C6.60006104 12.59620605 6.7970459 13.28762695 7 14 C3.59144141 16.01406709 0.17192267 18.00873701 -3.25 20 C-4.21808594 20.57234375 -5.18617187 21.1446875 -6.18359375 21.734375 C-7.11816406 22.27578125 -8.05273438 22.8171875 -9.015625 23.375 C-10.30388184 24.12910156 -10.30388184 24.12910156 -11.61816406 24.8984375 C-14 26 -14 26 -18 26 C-18 26.66 -18 27.32 -18 28 C-19.45537568 28.83848804 -20.91440373 29.67063934 -22.375 30.5 C-23.59316406 31.19609375 -23.59316406 31.19609375 -24.8359375 31.90625 C-27 33 -27 33 -29 33 C-29.609319 25.93189964 -29.609319 25.93189964 -26.875 21.75 C-24 19 -24 19 -20.9375 17.25 C-17.72951179 14.79281754 -17.30993977 13.74228932 -16 10.0625 C-13.09070958 1.99041141 -8.68750359 -1.26108923 0 0 Z " fill="#C7063A" transform="translate(47,16)"/>
<path d="M0 0 C2.74079926 1.37039963 2.95372452 3.18271147 3.90356445 5.96655273 C4.22973755 6.97310913 4.22973755 6.97310913 4.5625 8 C4.78574951 8.67683838 5.00899902 9.35367676 5.23901367 10.05102539 C6.8294765 15.04647309 7.72357892 19.74799948 8 25 C4.04 26.98 0.08 28.96 -4 31 C-9.94 25.06 -15.88 19.12 -22 13 C-17.78218764 9.83664073 -13.46526326 7.31706666 -8.875 4.75 C-8.05128906 4.27820312 -7.22757813 3.80640625 -6.37890625 3.3203125 C-5.59128906 2.87945312 -4.80367187 2.43859375 -3.9921875 1.984375 C-3.27401855 1.57928711 -2.55584961 1.17419922 -1.81591797 0.75683594 C-1.21666504 0.50708008 -0.61741211 0.25732422 0 0 Z " fill="#FD6C02" transform="translate(53,30)"/>
<path d="M0 0 C1.32 0.33 2.64 0.66 4 1 C3.51789062 1.81339844 3.03578125 2.62679687 2.5390625 3.46484375 C-5.52475948 18.09492077 -6.16081744 30.9877547 -2 47 C-1.67 48.65 -1.34 50.3 -1 52 C-4.63 53.98 -8.26 55.96 -12 58 C-16.38446373 43.93317885 -17.58765521 27.84565525 -10.67578125 14.4296875 C-7.64282314 9.09613912 -4.13081739 4.52422857 0 0 Z " fill="#FCB609" transform="translate(30,67)"/>
<path d="M0 0 C3.875 0.5625 3.875 0.5625 6.375 2.125 C8.36705417 5.36208803 7.97964087 7.82594906 7.875 11.5625 C4.39128516 13.54410104 0.90408326 15.51940367 -2.58642578 17.48901367 C-3.77261549 18.15950392 -4.95784951 18.83168792 -6.14208984 19.50561523 C-7.84739178 20.47567574 -9.55646852 21.43909082 -11.265625 22.40234375 C-12.80524902 23.27427368 -12.80524902 23.27427368 -14.37597656 24.16381836 C-16.68923521 25.34078628 -18.59218891 26.09355903 -21.125 26.5625 C-23.54127943 20.92451467 -24.8545688 16.71172276 -24.125 10.5625 C-21.3417768 7.85501077 -19.03853009 7.17139325 -15.25 6.6875 C-11.66365475 6.0792894 -9.60851078 5.48868088 -7 2.9375 C-4.11040176 0.55044059 -3.51096146 0.16134933 0 0 Z " fill="#C5053A" transform="translate(76.125,1.4375)"/>
<path d="M0 0 C-1.1674538 13.77595486 -8.47329994 27.13785275 -18 37 C-18.99 37.495 -18.99 37.495 -20 38 C-22.11963223 30.74770459 -23.2067945 23.66557593 -19.87109375 16.61328125 C-16.11810447 10.59009137 -7.8018867 0 0 0 Z " fill="#141F29" transform="translate(165,113)"/>
<path d="M0 0 C0.51046875 1.03447266 0.51046875 1.03447266 1.03125 2.08984375 C4.5715372 8.95385803 8.61947715 14.46925951 14 20 C10.54465326 22.94720751 7.26220709 25.36766537 3 27 C-3.00057691 25.05160551 -6.32006755 18.17190043 -9.1171875 12.890625 C-10.36613992 10.10724531 -11 8.07444242 -11 5 C-9.54462432 4.16151196 -8.08559627 3.32936066 -6.625 2.5 C-5.81289063 2.0359375 -5.00078125 1.571875 -4.1640625 1.09375 C-2 0 -2 0 0 0 Z " fill="#4C1871" transform="translate(30,119)"/>
<path d="M0 0 C1.32 0.33 2.64 0.66 4 1 C3.27683594 2.25490234 3.27683594 2.25490234 2.5390625 3.53515625 C-1.11813057 10.18451046 -3.3238764 15.42493721 -3.8125 23.0625 C-4.36260438 29.43840855 -4.36260438 29.43840855 -7.33203125 32.0546875 C-9.87129727 33.31189053 -12.26627588 34.26865314 -15 35 C-15.69665572 22.46019699 -10.65349268 12.3080044 -2.625 2.875 C-1.75875 1.92625 -0.8925 0.9775 0 0 Z " fill="#FC700C" transform="translate(30,67)"/>
<path d="M0 0 C2.18359375 2.2578125 2.18359375 2.2578125 4.4375 5.125 C5.21867187 6.11371094 5.99984375 7.10242188 6.8046875 8.12109375 C9.28041157 11.36772833 11.68387286 14.63787996 14 18 C12.0703125 19.2890625 12.0703125 19.2890625 9 20 C5.72620145 18.87029798 2.84686485 17.13522172 -0.125 15.375 C-0.93582031 14.92253906 -1.74664062 14.47007813 -2.58203125 14.00390625 C-9.70544725 9.91824451 -9.70544725 9.91824451 -12 6 C-10.90012224 2.70036671 -10.54413252 2.38935228 -7.6875 0.75 C-7.09324219 0.39421875 -6.49898437 0.0384375 -5.88671875 -0.328125 C-3.38083363 -1.22048989 -2.42925755 -1.10336507 0 0 Z " fill="#FC6C07" transform="translate(31,45)"/>
<path d="M0 0 C2.86311911 1.24363282 3.62749806 2.93740085 5.1484375 5.62890625 C5.64601562 6.49 6.14359375 7.35109375 6.65625 8.23828125 C9.96050265 14.62020922 9.96050265 14.62020922 10.1484375 18.37890625 C8.36841737 22.33450653 4.8491808 24.04035886 1.0234375 25.87890625 C0.3634375 25.87890625 -0.2965625 25.87890625 -0.9765625 25.87890625 C-0.99074219 25.20085937 -1.00492187 24.5228125 -1.01953125 23.82421875 C-1.35551391 17.2680166 -2.68860408 12.59271365 -5.91796875 6.875 C-6.9765625 4.87890625 -6.9765625 4.87890625 -6.9765625 2.87890625 C-2.90104484 -0.177732 -2.90104484 -0.177732 0 0 Z " fill="#4C1B73" transform="translate(125.9765625,107.12109375)"/>
<path d="M0 0 C1.125 3.3125 1.125 3.3125 2 7 C1.01 8.485 1.01 8.485 0 10 C-5.48392034 11.03870589 -10.81665699 9.7645423 -16 8 C-13.20270707 6.13513805 -10.38032298 4.49727525 -7.4375 2.875 C-6.46683594 2.33617188 -5.49617187 1.79734375 -4.49609375 1.2421875 C-2 0 -2 0 0 0 Z " fill="#471B74" transform="translate(169,85)"/>
<path d="M0 0 C1.32 0.33 2.64 0.66 4 1 C3.01 2.98 2.02 4.96 1 7 C0.34 6.34 -0.32 5.68 -1 5 C-1.99 5.99 -2.98 6.98 -4 8 C-4.66 7.67 -5.32 7.34 -6 7 C-4.02 4.69 -2.04 2.38 0 0 Z " fill="#F87318" transform="translate(30,67)"/>
</svg>
